<svg width="18" height="18" viewBox="0 0 18 18" fill="none" xmlns="http://www.w3.org/2000/svg">
<g clip-path="url(#clip0_2124_2455)">
<path d="M16.5012 9.0006C16.5012 13.1431 13.1431 16.5012 9.0006 16.5012M16.5012 9.0006C16.5012 4.85813 13.1431 1.5 9.0006 1.5M16.5012 9.0006H1.5M9.0006 16.5012C4.85813 16.5012 1.5 13.1431 1.5 9.0006M9.0006 16.5012C7.07462 14.4789 6.00036 11.7933 6.00036 9.0006C6.00036 6.20793 7.07462 3.52228 9.0006 1.5M9.0006 16.5012C10.9266 14.4789 12.0008 11.7933 12.0008 9.0006C12.0008 6.20793 10.9266 3.52228 9.0006 1.5M9.0006 1.5C4.85813 1.5 1.5 4.85813 1.5 9.0006" stroke="#4ECDC4" stroke-width="2" stroke-linecap="round"/>
</g>
<defs>
<clipPath id="clip0_2124_2455">
<rect width="18" height="18" fill="white"/>
</clipPath>
</defs>
</svg>
